<svg xmlns="http://www.w3.org/2000/svg" xmlns:xlink="http://www.w3.org/1999/xlink" width="69" height="69" viewBox="0 0 69 69">
  <defs>
    <clipPath id="clip-path">
      <rect id="Rectángulo_88" data-name="Rectángulo 88" width="65" height="64" transform="translate(0.284 0.404)" fill="none"/>
    </clipPath>
  </defs>
  <g id="ico_ws" data-name="ico ws" transform="translate(-0.015 0)">
    <circle id="Elipse_19" data-name="Elipse 19" cx="34.5" cy="34.5" r="34.5" transform="translate(0.015 0)" fill="#037f8c"/>
    <g id="Grupo_58" data-name="Grupo 58" transform="translate(1.731 2.595)">
      <g id="Grupo_57" data-name="Grupo 57" transform="translate(0 0)" clip-path="url(#clip-path)">
        <path id="fondo" d="M64.186,32.093A32.093,32.093,0,1,1,32.093,0,32.093,32.093,0,0,1,64.186,32.093" transform="translate(-0.083 -0.079)" fill="#090909"/>
        <path id="Trazado_2366" data-name="Trazado 2366" d="M61.431,29.276A20.361,20.361,0,0,0,29.388,53.833L26.5,64.38l10.793-2.83a20.344,20.344,0,0,0,9.729,2.477h.009a20.36,20.36,0,0,0,14.4-34.751M47.03,60.589h-.007a16.9,16.9,0,0,1-8.612-2.358l-.618-.367-6.4,1.68L33.1,53.3l-.4-.64A16.922,16.922,0,1,1,47.03,60.589M56.312,47.92c-.509-.254-3.01-1.485-3.476-1.655s-.805-.254-1.144.255-1.314,1.654-1.611,1.994-.593.382-1.1.127a13.887,13.887,0,0,1-4.091-2.524,15.328,15.328,0,0,1-2.83-3.523c-.3-.509-.032-.784.223-1.038.229-.228.509-.594.763-.891a3.46,3.46,0,0,0,.508-.849.935.935,0,0,0-.042-.891c-.127-.254-1.144-2.758-1.569-3.776-.413-.992-.832-.858-1.144-.873-.3-.015-.636-.018-.975-.018a1.868,1.868,0,0,0-1.356.637,5.7,5.7,0,0,0-1.781,4.242A9.891,9.891,0,0,0,38.762,44.4c.254.339,3.587,5.476,8.69,7.679a29.426,29.426,0,0,0,2.9,1.071,6.973,6.973,0,0,0,3.2.2c.977-.146,3.01-1.23,3.433-2.418a4.245,4.245,0,0,0,.3-2.418c-.127-.212-.466-.339-.975-.594" transform="translate(-13.983 -12.304)" fill="#037f8c" fill-rule="evenodd"/>
      </g>
    </g>
  </g>
</svg>
