<svg xmlns="http://www.w3.org/2000/svg" xmlns:xlink="http://www.w3.org/1999/xlink" width="69" height="69" viewBox="0 0 69 69">
  <defs>
    <clipPath id="clip-path">
      <rect id="Rectángulo_87" data-name="Rectángulo 87" width="64" height="64" transform="translate(0.165 0.404)" fill="none"/>
    </clipPath>
  </defs>
  <g id="ico_ig" data-name="ico ig" transform="translate(0.239 0)">
    <circle id="Elipse_18" data-name="Elipse 18" cx="34.5" cy="34.5" r="34.5" transform="translate(-0.239 0)" fill="#037f8c"/>
    <g id="Grupo_56" data-name="Grupo 56" transform="translate(2.596 2.595)">
      <g id="Grupo_55" data-name="Grupo 55" transform="translate(0 0)" clip-path="url(#clip-path)">
        <path id="fondo" d="M32.093,0A32.093,32.093,0,1,1,0,32.093,32.093,32.093,0,0,1,32.093,0" transform="translate(-0.225 -0.079)" fill="#090909"/>
        <path id="Trazado_2362" data-name="Trazado 2362" d="M45.207,28.641c5.4,0,6.034.02,8.165.117a11.176,11.176,0,0,1,3.752.7,6.69,6.69,0,0,1,3.835,3.835,11.188,11.188,0,0,1,.7,3.752c.1,2.131.117,2.77.117,8.165s-.02,6.034-.117,8.165a11.188,11.188,0,0,1-.7,3.752,6.69,6.69,0,0,1-3.835,3.835,11.176,11.176,0,0,1-3.752.7c-2.13.1-2.769.117-8.165.117s-6.035-.02-8.165-.117a11.176,11.176,0,0,1-3.752-.7,6.69,6.69,0,0,1-3.835-3.835,11.176,11.176,0,0,1-.7-3.752c-.1-2.131-.117-2.77-.117-8.165s.02-6.034.117-8.165a11.176,11.176,0,0,1,.7-3.752,6.69,6.69,0,0,1,3.835-3.835,11.176,11.176,0,0,1,3.752-.7c2.131-.1,2.77-.117,8.165-.117m0-3.641c-5.488,0-6.176.023-8.331.122a14.834,14.834,0,0,0-4.9.939,10.332,10.332,0,0,0-5.91,5.91,14.834,14.834,0,0,0-.939,4.9c-.1,2.155-.122,2.844-.122,8.331s.023,6.176.122,8.331a14.834,14.834,0,0,0,.939,4.9,10.332,10.332,0,0,0,5.91,5.91,14.834,14.834,0,0,0,4.9.939c2.155.1,2.844.122,8.331.122s6.176-.023,8.331-.122a14.834,14.834,0,0,0,4.9-.939,10.332,10.332,0,0,0,5.91-5.91,14.834,14.834,0,0,0,.939-4.9c.1-2.155.122-2.844.122-8.331s-.023-6.176-.122-8.331a14.834,14.834,0,0,0-.939-4.9,10.332,10.332,0,0,0-5.91-5.91,14.834,14.834,0,0,0-4.9-.939c-2.155-.1-2.844-.122-8.331-.122" transform="translate(-13.339 -13.193)" fill="#037f8c"/>
        <path id="Trazado_2363" data-name="Trazado 2363" d="M56.052,45.676A10.376,10.376,0,1,0,66.428,56.052,10.376,10.376,0,0,0,56.052,45.676m0,17.112a6.735,6.735,0,1,1,6.736-6.736,6.736,6.736,0,0,1-6.736,6.736" transform="translate(-24.185 -24.038)" fill="#037f8c"/>
        <path id="Trazado_2364" data-name="Trazado 2364" d="M89.937,42.138a2.425,2.425,0,1,1-2.425-2.425,2.425,2.425,0,0,1,2.425,2.425" transform="translate(-44.858 -20.91)" fill="#037f8c"/>
      </g>
    </g>
  </g>
</svg>
