<svg xmlns="http://www.w3.org/2000/svg" width="46.24" height="33.158" viewBox="0 0 46.24 33.158">
  <g id="icono_sobre" transform="translate(-812.746 -3720.842)">
    <g id="Grupo_32" data-name="Grupo 32" transform="translate(813.578 3721.675)">
      <g id="Grupo_33" data-name="Grupo 33" transform="translate(0 0)">
        <path id="Rectángulo_57" data-name="Rectángulo 57" d="M4.566,0H40.011a4.565,4.565,0,0,1,4.565,4.565V26.929a4.565,4.565,0,0,1-4.565,4.565H4.566A4.566,4.566,0,0,1,0,26.928V4.566A4.566,4.566,0,0,1,4.566,0Z" fill="none" stroke="#037f8c" stroke-miterlimit="2.613" stroke-width="1.664"/>
        <path id="Trazado_2338" data-name="Trazado 2338" d="M4.185.832H39.872A3.366,3.366,0,0,1,42.3,1.954a2.6,2.6,0,0,1,.42.625,2.767,2.767,0,0,1-.729,1.292l-18,18a2.788,2.788,0,0,1-3.934,0l-18-18a2.767,2.767,0,0,1-.729-1.292A3.211,3.211,0,0,1,4.185.832Z" transform="translate(0.027 -0.262)" fill="none" stroke="#037f8c" stroke-miterlimit="2.613" stroke-width="1.664"/>
        <line id="Línea_4" data-name="Línea 4" x1="13.714" y2="13.713" transform="translate(1.362 17.147)" fill="none" stroke="#037f8c" stroke-miterlimit="2.613" stroke-width="1.664"/>
        <line id="Línea_5" data-name="Línea 5" x2="13.714" y2="13.713" transform="translate(29.627 17.147)" fill="none" stroke="#037f8c" stroke-miterlimit="2.613" stroke-width="1.664"/>
      </g>
    </g>
  </g>
</svg>
