<svg xmlns="http://www.w3.org/2000/svg" width="42.46" height="42.376" viewBox="0 0 42.46 42.376">
  <g id="Grupo_35" data-name="Grupo 35" transform="translate(-812.685 -3626.826)">
    <g id="Grupo_30" data-name="Grupo 30" transform="translate(813 3627.115)">
      <g id="Grupo_34" data-name="Grupo 34" transform="translate(0 0)">
        <path id="Trazado_2334" data-name="Trazado 2334" d="M35.926,36.437,31.965,33.8,28.444,31.45a1.559,1.559,0,0,0-2.094.34l-2.179,2.8A1.552,1.552,0,0,1,22.19,35c-1.478-.822-3.226-1.6-7.084-5.458s-4.636-5.605-5.458-7.084a1.552,1.552,0,0,1,.411-1.981l2.8-2.179a1.56,1.56,0,0,0,.341-2.094l-2.275-3.412L8.213,8.724a1.561,1.561,0,0,0-2.1-.472L2.985,10.129a3.821,3.821,0,0,0-1.735,2.246c-.856,3.119-1.028,10,10,21.028s17.908,10.854,21.027,10a3.824,3.824,0,0,0,2.246-1.736L36.4,38.537A1.56,1.56,0,0,0,35.926,36.437Z" transform="translate(-0.289 -2.59)" fill="none" stroke="#037f8c" stroke-linecap="round" stroke-miterlimit="2.613" stroke-width="1.79"/>
        <path id="Trazado_2335" data-name="Trazado 2335" d="M30.876.895A20.335,20.335,0,0,1,51.211,21.23" transform="translate(-9.961 -0.289)" fill="none" stroke="#037f8c" stroke-linecap="round" stroke-miterlimit="2.613" stroke-width="1.79"/>
        <path id="Trazado_2336" data-name="Trazado 2336" d="M30.875,9.366a14.6,14.6,0,0,1,14.6,14.6" transform="translate(-9.96 -3.021)" fill="none" stroke="#037f8c" stroke-linecap="round" stroke-miterlimit="2.613" stroke-width="1.79"/>
        <path id="Trazado_2337" data-name="Trazado 2337" d="M30.876,17.838A8.859,8.859,0,0,1,39.734,26.7" transform="translate(-9.961 -5.754)" fill="none" stroke="#037f8c" stroke-linecap="round" stroke-miterlimit="2.613" stroke-width="1.79"/>
      </g>
    </g>
  </g>
</svg>
