<svg xmlns="http://www.w3.org/2000/svg" width="204.359" height="86.015" viewBox="0 0 204.359 86.015">
  <g id="logo-vital-sin-slogan" transform="translate(0)">
    <path id="Trazado_2339" data-name="Trazado 2339" d="M48.763,85.7l.212-.1L101.545,3.2a2.249,2.249,0,0,0-.106-2.3A2.723,2.723,0,0,0,99.112,0H88.64c-3.279,0-4.019,1.5-5.606,3.7L45.8,60.8l-1.9,2.5c0-.8-26.761-28-26.761-28-3.173-3.3-4.76-3.2-6.981-3.2H1.587A1.672,1.672,0,0,0,0,33.7H0c0,.6.212.9.846,1.4Z" transform="translate(0 0.015)" fill="#ed1c24"/>
    <rect id="Rectángulo_85" data-name="Rectángulo 85" width="136.134" height="0.6" transform="translate(68.119 74.515)" fill="#ed1c24"/>
    <path id="Trazado_2340" data-name="Trazado 2340" d="M146.726,32.4l-15.02,35.7a.879.879,0,0,0,.106,1,1.179,1.179,0,0,0,.952.4h4.76a2.429,2.429,0,0,0,2.539-1.6L144.505,57l.106-.3.212.4,4.971,10.6a3.138,3.138,0,0,0,2.539,1.8h8.356a1.328,1.328,0,0,0,1.058-.5,1.214,1.214,0,0,0,0-1.2l-15.02-35.4" transform="translate(7.6 0.015)" fill="#0047ba"/>
    <path id="Trazado_2341" data-name="Trazado 2341" d="M97.018,32.4H87.6a1.93,1.93,0,0,0-1.9,1.9V67.8a2.042,2.042,0,0,0,.529,1.3,2.011,2.011,0,0,0,1.269.5h7.616a1.846,1.846,0,0,0,1.9-1.8h0V32.4" transform="translate(4.95 0.015)" fill="#0047ba"/>
    <path id="Trazado_2342" data-name="Trazado 2342" d="M132.447,32.4H104.1a1.749,1.749,0,0,0-1.8,1.8h0v2.3a2.042,2.042,0,0,0,.529,1.3,1.8,1.8,0,0,0,1.269.5h7.827V67.7a1.935,1.935,0,0,0,.423,1.3,1.8,1.8,0,0,0,1.269.5h7.4a1.749,1.749,0,0,0,1.8-1.8V38.3h7.827a1.749,1.749,0,0,0,1.8-1.8V32.4" transform="translate(5.908 0.015)" fill="#0047ba"/>
    <path id="Trazado_2343" data-name="Trazado 2343" d="M179.212,32.4H169.9a1.914,1.914,0,0,0-1.9,1.8V67.7a2.042,2.042,0,0,0,.529,1.3,1.8,1.8,0,0,0,1.269.5h22.953a1.914,1.914,0,0,0,1.9-1.8V65.4a2.042,2.042,0,0,0-.529-1.3,1.8,1.8,0,0,0-1.269-.5H179.318v-.2l-.106-31" transform="translate(9.703 0.015)" fill="#0047ba"/>
    <path id="Trazado_2344" data-name="Trazado 2344" d="M24,29.6c0-7.4,6.347-13.3,14.174-13.3s14.068,6,14.068,13.4C52.242,37,45.9,43,38.174,43,30.347,43,24,37,24,29.6Z" transform="translate(1.386 0.015)" fill="#0047ba"/>
    <path id="Trazado_2345" data-name="Trazado 2345" d="M86.006,84.4h.846c0,.3.106.7.529.7s.423-.3.423-.5a1.014,1.014,0,0,0-.529-.8l-.529-.5a1.721,1.721,0,0,1-.74-1.4,1.326,1.326,0,0,1,1.164-1.3h.212c.635,0,1.269.3,1.269,1.4H87.8c0-.4-.212-.7-.529-.7s-.423.2-.423.5.317.5.529.8l.529.5a2.081,2.081,0,0,1,.74,1.5,1.271,1.271,0,0,1-1.269,1.3h-.106A1.364,1.364,0,0,1,85.9,84.6C86.006,84.5,86.006,84.5,86.006,84.4Z" transform="translate(4.961 0.015)" fill="#0047ba"/>
    <path id="Trazado_2346" data-name="Trazado 2346" d="M91.8,84.5V80.7h.952v3.8c0,.4.212.6.529.6a.487.487,0,0,0,.529-.5V80.8h.952v3.8a1.271,1.271,0,0,1-1.269,1.3h-.212a1.145,1.145,0,0,1-1.375-1A.722.722,0,0,1,91.8,84.5Z" transform="translate(5.302 0.015)" fill="#0047ba"/>
    <path id="Trazado_2347" data-name="Trazado 2347" d="M97.906,80.7h1.481c.846,0,1.269.6,1.269,1.5s-.423,1.6-1.375,1.6h-.529v1.9H97.8v-5Zm1.375,2.4c.317,0,.529-.3.529-.9s-.106-.8-.529-.8h-.423v1.7h.423Z" transform="translate(5.649 0.015)" fill="#0047ba"/>
    <path id="Trazado_2348" data-name="Trazado 2348" d="M103.8,80.7h2.433v.8h-1.481v1.3h1.164v.8h-1.164V85h1.481v.8H103.8Z" transform="translate(5.995 0.015)" fill="#0047ba"/>
    <path id="Trazado_2349" data-name="Trazado 2349" d="M109.4,80.7h1.481c.846,0,1.375.5,1.375,1.5,0,.7-.212,1.2-.635,1.3l.74,2.3h-.952l-.635-2.1h-.423v2.1H109.4Zm1.375,2.3c.317,0,.529-.2.529-.8s-.212-.8-.529-.8h-.423V83Z" transform="translate(6.319 0.015)" fill="#0047ba"/>
    <path id="Trazado_2350" data-name="Trazado 2350" d="M115.612,77.7h1.9l1.058,3.3h0l1.058-3.3h1.692v8h-1.375V79.9h0l-1.058,3.4h-1.058l-1.058-3.4h0v5.8H115.4Z" transform="translate(6.665 0.015)" fill="#0047ba"/>
    <path id="Trazado_2351" data-name="Trazado 2351" d="M127.8,77.7h2.01l1.692,8h-1.481l-.423-2h-1.8l-.423,2H126Zm1.481,5-.635-3.3h0l-.635,3.3Z" transform="translate(7.277 0.015)" fill="#0047ba"/>
    <path id="Trazado_2352" data-name="Trazado 2352" d="M136.992,82.5,135.3,77.7h1.587l1.058,3.1.952-3.1h1.375l-1.692,4.8v3.2H137.1Z" transform="translate(7.815 0.015)" fill="#0047ba"/>
    <path id="Trazado_2353" data-name="Trazado 2353" d="M144.5,83.8v-4a1.993,1.993,0,0,1,2.01-2.1h.423a2.035,2.035,0,0,1,2.327,1.7v4.3a2.05,2.05,0,0,1-1.9,2.2h-.423a2.035,2.035,0,0,1-2.327-1.7A.723.723,0,0,1,144.5,83.8Zm3.173,0V79.7a.972.972,0,0,0-.74-.9,1.008,1.008,0,0,0-.952.7v4.3a.972.972,0,0,0,.74.9,1.008,1.008,0,0,0,.952-.7Z" transform="translate(8.345 0.015)" fill="#0047ba"/>
    <path id="Trazado_2354" data-name="Trazado 2354" d="M154.1,77.7h2.327a2.058,2.058,0,0,1,2.221,2.3,2.131,2.131,0,0,1-1.058,2.1l1.164,3.6h-1.587l-.952-3.3h-.635v3.3H154.1Zm2.221,3.7c.529,0,.846-.4.846-1.3s-.212-1.3-.846-1.3h-.635v2.5h.635Z" transform="translate(8.9 0.015)" fill="#0047ba"/>
    <path id="Trazado_2355" data-name="Trazado 2355" d="M163.6,77.7h1.481v8H163.6Z" transform="translate(9.449 0.015)" fill="#0047ba"/>
    <path id="Trazado_2356" data-name="Trazado 2356" d="M170.1,83.6h1.375c.106.6.212,1.1.846,1.1s.74-.4.74-.8a2.061,2.061,0,0,0-.74-1.3l-.846-.8a2.611,2.611,0,0,1-1.164-2.2,1.935,1.935,0,0,1,1.9-2h.212c1.058,0,2.01.5,2.01,2.2h-1.269c-.106-.6-.212-1.1-.74-1.1s-.635.3-.635.8.423.9.846,1.3l.74.8a2.93,2.93,0,0,1,1.164,2.3,2.125,2.125,0,0,1-2.01,2.1h-.106a2.1,2.1,0,0,1-2.221-2C170,83.8,170,83.7,170.1,83.6Z" transform="translate(9.821 0.015)" fill="#0047ba"/>
    <path id="Trazado_2357" data-name="Trazado 2357" d="M180.387,78.9H178.8V77.7h4.654v1.2h-1.587v6.8h-1.481Z" transform="translate(10.327 0.015)" fill="#0047ba"/>
    <path id="Trazado_2358" data-name="Trazado 2358" d="M189.092,77.7h2.116l1.692,8h-1.587l-.423-2H189.2l-.423,2H187.4Zm1.587,5-.635-3.3h0l-.635,3.3Z" transform="translate(10.824 0.015)" fill="#0047ba"/>
  </g>
</svg>
